<svg version="1.0" xmlns="http://www.w3.org/2000/svg"
 width="256.000000pt" height="256.000000pt" viewBox="0 0 256.000000 256.000000"
 preserveAspectRatio="xMidYMid meet">

<g transform="translate(0.000000,256.000000) scale(0.100000,-0.100000)"
fill="#000000" stroke="none">
<path d="M1105 2449 c-379 -55 -724 -311 -890 -662 -145 -306 -153 -664 -21
-969 149 -344 432 -586 803 -685 89 -24 115 -26 283 -26 167 0 194 2 281 25
439 118 754 434 866 867 30 119 41 308 24 434 -79 590 -585 1032 -1175 1026
-61 -1 -138 -5 -171 -10z m266 -305 c39 -20 87 -78 98 -121 6 -22 11 -145 11
-290 l0 -253 253 0 c145 0 268 -5 290 -11 43 -12 102 -59 121 -98 54 -107 -7
-249 -121 -280 -22 -6 -143 -11 -290 -11 l-253 0 0 -252 c0 -148 -5 -269 -11
-291 -31 -114 -173 -175 -280 -121 -39 19 -86 78 -98 121 -6 22 -11 145 -11
291 l0 252 -252 0 c-146 0 -269 5 -291 11 -44 12 -102 59 -124 103 -21 40 -21
132 0 172 22 44 80 91 124 103 22 6 145 11 291 11 l252 0 0 253 c0 145 5 268
11 290 11 40 58 100 93 119 54 29 133 30 187 2z"/>
</g>
</svg>
