<svg version="1.0" xmlns="http://www.w3.org/2000/svg"
 width="1200.000000pt" height="1200.000000pt" viewBox="0 0 1200.000000 1200.000000"
 preserveAspectRatio="xMidYMid meet">

<g transform="translate(0.000000,1200.000000) scale(0.100000,-0.100000)"
fill="#000000" stroke="none">
<path d="M762 11228 l-762 -763 2242 -2242 2242 -2242 -2234 -2230 -2235
-2229 750 -751 c412 -413 753 -751 758 -751 4 0 1011 1002 2239 2226 l2231
2226 2236 -2236 2236 -2236 765 765 765 765 -2235 2235 -2235 2235 2238 2231
c1230 1227 2237 2236 2237 2242 0 7 -337 349 -749 761 l-749 749 -2242 -2238
-2243 -2237 -2241 2241 c-1233 1233 -2243 2241 -2246 2241 -3 0 -348 -343
-768 -762z"/>
</g>
</svg>
