<svg version="1.0" xmlns="http://www.w3.org/2000/svg"
 width="512.000000pt" height="512.000000pt" viewBox="0 0 512.000000 512.000000"
 preserveAspectRatio="xMidYMid meet">

<g transform="translate(0.000000,512.000000) scale(0.100000,-0.100000)"
fill="#000000" stroke="none">
<path d="M2360 4670 c-600 -62 -1134 -362 -1493 -839 -212 -281 -346 -600
-404 -962 -23 -143 -23 -475 0 -618 75 -467 273 -858 601 -1187 327 -326 722
-526 1187 -601 143 -23 475 -23 618 0 467 75 858 273 1187 601 327 328 526
721 601 1187 23 143 23 475 0 618 -75 467 -273 858 -601 1187 -327 326 -727
529 -1182 599 -121 19 -399 27 -514 15z"/>
</g>
</svg>