<svg version="1.0" xmlns="http://www.w3.org/2000/svg"
 width="512.000000pt" height="512.000000pt" viewBox="0 0 512.000000 512.000000"
 preserveAspectRatio="xMidYMid meet">

<g transform="translate(0.000000,512.000000) scale(0.100000,-0.100000)"
fill="#000000" stroke="none">
<path d="M1775 5109 c-318 -41 -534 -354 -460 -668 100 -421 622 -569 924
-261 213 216 213 558 1 770 -125 125 -291 182 -465 159z"/>
<path d="M1300 4015 c-216 -55 -410 -159 -640 -344 -191 -153 -597 -585 -636
-678 -19 -43 -18 -125 1 -171 33 -78 106 -125 196 -125 82 0 124 28 227 152
141 172 463 494 477 479 3 -3 -24 -142 -60 -309 -102 -472 -115 -539 -115
-586 0 -51 33 -155 62 -196 l20 -28 -27 -422 -28 -422 -180 -465 c-203 -523
-210 -549 -167 -648 25 -58 90 -123 147 -147 109 -46 253 -3 324 97 11 15 108
254 215 530 l195 503 19 264 c10 145 20 265 22 267 2 2 75 -110 163 -248 l158
-250 133 -487 c73 -267 140 -504 149 -526 54 -143 229 -209 371 -140 60 29 98
70 127 135 38 85 32 119 -128 700 -128 468 -151 543 -184 595 -21 33 -125 197
-231 365 l-193 304 15 46 c8 25 55 233 104 463 49 229 91 417 95 417 3 0 49
-49 102 -109 162 -183 361 -355 599 -518 88 -60 104 -67 156 -71 39 -3 70 1
96 12 21 9 43 13 50 9 15 -9 272 -275 567 -588 135 -143 324 -336 419 -428
l173 -169 46 46 45 45 -99 93 c-129 118 -318 308 -743 745 -328 337 -342 352
-332 378 17 46 12 108 -15 162 -22 43 -42 62 -138 129 -263 185 -429 339 -627
585 -318 395 -396 474 -529 538 -70 33 -82 35 -190 38 -97 2 -132 -1 -211 -22z"/>
<path d="M4537 1849 c-16 -12 -33 -41 -41 -70 -24 -79 -70 -162 -189 -337 -60
-89 -108 -164 -106 -166 2 -2 100 -58 218 -126 l214 -122 46 45 46 45 45 -20
c64 -29 178 -35 235 -14 81 31 131 114 105 176 -15 37 -55 67 -157 118 -57 29
-92 55 -119 88 -78 93 -127 143 -145 149 -16 6 -18 16 -16 89 2 93 -11 129
-55 152 -36 19 -51 18 -81 -7z"/>
<path d="M3209 1361 c-33 -34 -39 -82 -13 -119 8 -12 60 -58 115 -102 l99 -81
0 -215 0 -216 -90 -172 c-56 -108 -90 -185 -90 -204 0 -18 10 -43 26 -61 21
-26 33 -31 69 -31 26 0 51 7 63 18 12 9 60 92 108 184 48 93 89 168 93 168 3
0 46 -71 96 -157 114 -199 125 -213 177 -213 21 0 48 5 60 11 26 14 51 74 42
102 -4 12 -44 88 -90 168 -46 81 -84 149 -84 153 0 3 140 6 310 6 l310 0 0
-189 c0 -189 0 -190 26 -220 45 -54 136 -39 163 26 8 20 11 132 9 383 l-3 354
-230 133 -230 132 -310 1 -310 1 -105 84 c-91 73 -110 85 -143 85 -29 0 -46
-7 -68 -29z"/>
</g>
</svg>
