<svg version="1.0" xmlns="http://www.w3.org/2000/svg"
 width="353.000000pt" height="500.000000pt" viewBox="0 0 353.000000 500.000000"
 preserveAspectRatio="xMidYMid meet">

<g transform="translate(0.000000,500.000000) scale(0.100000,-0.100000)"
fill="#000000" stroke="none">
<path d="M1122 3788 c-54 -18 -125 -90 -160 -160 -151 -310 -7 -823 271 -965
172 -87 332 9 404 242 14 47 18 91 17 205 -1 127 -4 156 -27 235 -58 192 -169
355 -287 419 -60 33 -160 44 -218 24z"/>
<path d="M2238 3785 c-104 -38 -198 -136 -268 -280 -67 -137 -93 -248 -94
-400 0 -179 41 -309 124 -393 58 -57 103 -76 180 -76 89 0 147 30 235 119 80
80 148 203 185 335 30 107 38 302 16 401 -31 140 -100 245 -190 289 -49 23
-131 26 -188 5z"/>
<path d="M260 3078 c-167 -90 -207 -381 -90 -661 119 -286 370 -479 555 -427
54 15 128 77 156 131 116 227 12 623 -222 843 -97 92 -172 128 -274 134 -70 3
-86 1 -125 -20z"/>
<path d="M3049 3081 c-164 -64 -326 -261 -397 -481 -34 -105 -45 -183 -40
-282 8 -151 57 -253 146 -305 40 -24 58 -28 122 -28 90 1 155 26 241 95 192
154 312 408 312 660 0 165 -49 274 -148 331 -42 24 -61 29 -120 28 -43 0 -88
-7 -116 -18z"/>
<path d="M1680 2481 c-101 -33 -187 -108 -272 -236 -136 -205 -302 -382 -457
-487 -58 -40 -127 -92 -153 -116 -159 -148 -201 -388 -103 -588 65 -133 210
-236 381 -271 73 -15 103 -16 285 -5 350 21 527 25 649 12 63 -6 187 -14 275
-17 139 -4 171 -2 247 16 194 46 299 140 343 306 45 175 -8 348 -151 490 -39
38 -116 112 -172 163 -141 129 -322 361 -408 520 -36 69 -117 142 -200 183
-57 28 -79 33 -153 36 -47 1 -97 -1 -111 -6z"/>
</g>
</svg>
